Coordinates
version=1
nRows=32
nColumns=22
inDegrees=yes

Units are S.I. units (second, meters, Newtons, ...)
If the header above contains a line with 'inDegrees', this indicates whether rotational values are in degrees (yes) or radians (no).

endheader
time	pelvis_tilt	pelvis_list	pelvis_rotation	pelvis_tx	pelvis_ty	pelvis_tz	hip_flexion_r	hip_adduction_r	hip_rotation_r	knee_angle_r	ankle_angle_r	subtalar_angle_r	hip_flexion_l	hip_adduction_l	hip_rotation_l	knee_angle_l	ankle_angle_l	subtalar_angle_l	lumbar_extension	lumbar_bending	lumbar_rotation
      4.15000000	     -6.85907121	      0.96291409	     -7.10371477	      1.29993151	      0.96156745	      0.24363521	     20.13365664	     -2.00778001	      0.09401094	    -63.02310095	     12.06868313	      4.40118840	     32.72111377	      1.50686970	     -6.07410502	    -28.74525286	      8.63985164	     -1.15277454	      0.79498288	      1.86809087	      6.90523263
      4.16000000	     -6.89989542	      1.11014839	     -7.23413684	      1.30537980	      0.96281650	      0.24304513	     21.05246286	     -2.30396142	      0.10809671	    -63.50094659	     12.59462871	      3.45637757	     32.27009949	      1.71061317	     -6.15859343	    -28.47153951	      8.87118761	     -1.29820620	      0.78365234	      1.75449076	      6.73126547
      4.17000000	     -6.95423059	      1.21345863	     -7.33569204	      1.31064328	      0.96405118	      0.24253129	     21.94319736	     -2.51182987	      0.13067982	    -63.76639922	     13.13566064	      2.59876009	     31.83171118	      1.87567294	     -6.21860243	    -28.17614348	      9.08019918	     -1.43636250	      0.76972872	      1.67785236	      6.51225881
      4.18000000	     -7.02405246	      1.28191035	     -7.40254398	      1.31569976	      0.96523796	      0.24209136	     22.81250692	     -2.64662638	      0.14993536	    -63.83833195	     13.68417400	      1.90194505	     31.41477318	      2.01102528	     -6.25378123	    -27.86735116	      9.27100679	     -1.56191896	      0.75314885	      1.62483994	      6.25963322
      4.19000000	     -7.10608360	      1.32226353	     -7.42642650	      1.32052660	      0.96635229	      0.24171566	     23.65836195	     -2.72019806	      0.15994143	    -63.73412803	     14.24590642	      1.39127975	     31.02974135	      2.12036795	     -6.28100786	    -27.56578768	      9.44375983	     -1.67198484	      0.72654893	      1.58806263	      5.94557696
      4.20000000	     -7.16780980	      1.29618513	     -7.43950221	      1.32512670	      0.96744488	      0.24142172	     24.43688700	     -2.69105181	      0.17143691	    -63.45199658	     14.81577739	      1.18528686	     30.64055493	      2.15987398	     -6.29410575	    -27.28802947	      9.67760661	     -1.71716116	      0.64096150	      1.61549904	      5.64113662
      4.21000000	     -7.25969952	      1.28829403	     -7.42864690	      1.32950666	      0.96841150	      0.24121097	     25.22852667	     -2.66420869	      0.16087164	    -63.03430008	     15.35216185	      0.99082198	     30.29507382	      2.20965006	     -6.30946690	    -26.99550717	      9.85205549	     -1.78134243	      0.58130008	      1.60285147	      5.30012886
      4.22000000	     -7.40773664	      1.29339772	     -7.39109421	      1.33367859	      0.96920105	      0.24097223	     26.05525375	     -2.65164893	      0.11077628	    -62.48435749	     15.83296003	      0.80253451	     30.03349190	      2.27469130	     -6.30333625	    -26.71582869	      9.97733812	     -1.90952384	      0.57669798	      1.58746587	      4.91963830
      4.23000000	     -7.50099612	      1.26680461	     -7.37401054	      1.33767807	      0.97002369	      0.24085071	     26.77699968	     -2.59365429	      0.05964496	    -61.78839098	     16.35437922	      0.78684858	     29.71851007	      2.28912153	     -6.34331395	    -26.43732966	     10.14782838	     -1.93560717	      0.48666716	      1.58984682	      4.59215135
      4.24000000	     -7.62572065	      1.25121496	     -7.31993937	      1.34149885	      0.97071559	      0.24069434	     27.49677572	     -2.57448256	     -0.06364933	    -60.97764448	     16.87224807	      0.88877064	     29.45906746	      2.32607384	     -6.34556215	    -26.17061234	     10.27619195	     -1.97947595	      0.42860916	      1.58241706	      4.21998688
      4.25000000	     -7.74784462	      1.22877600	     -7.27243280	      1.34514527	      0.97135967	      0.24060326	     28.17259106	     -2.54453956	     -0.19620982	    -60.05236032	     17.38396689	      1.08318573	     29.20855035	      2.35009339	     -6.33463832	    -25.90936795	     10.39575759	     -2.02885797	      0.35819821	      1.57822781	      3.84723649
      4.26000000	     -7.84963668	      1.20997619	     -7.25880865	      1.34866082	      0.97199220	      0.24061319	     28.78288022	     -2.51250102	     -0.32843566	    -59.01648991	     17.90430541	      1.12747631	     28.93995146	      2.35392327	     -6.38461949	    -25.64271605	     10.51356162	     -2.05010669	      0.26001039	      1.56282919	      3.54904190
      4.27000000	     -7.96166060	      1.16921384	     -7.17104552	      1.35206630	      0.97256600	      0.24047780	     29.34164636	     -2.53424603	     -0.60803367	    -57.87957807	     18.39953344	      1.31000431	     28.70187088	      2.37705653	     -6.33600025	    -25.39371232	     10.61022860	     -2.13754190	      0.17174060	      1.58274478	      3.18140549
      4.28000000	     -8.07668866	      1.12551160	     -7.10920604	      1.35535686	      0.97311231	      0.24045982	     29.85225272	     -2.53606591	     -0.87170750	    -56.64848710	     18.87777190	      1.43958554	     28.47297720	      2.37705496	     -6.30815914	    -25.14673655	     10.69825426	     -2.24170651	      0.08966319	      1.59602145	      2.85868107
      4.29000000	     -8.19679023	      1.07331985	     -7.04101629	      1.35857582	      0.97362921	      0.24044597	     30.31013555	     -2.55116809	     -1.18934951	    -55.33264935	     19.33542740	      1.52719147	     28.26085534	      2.36959536	     -6.26698171	    -24.91343050	     10.77846862	     -2.35123838	      0.02130038	      1.62213592	      2.56360465
      4.30000000	     -8.32184575	      1.01505048	     -6.96824606	      1.36173853	      0.97412153	      0.24044120	     30.71649134	     -2.57461391	     -1.55222254	    -53.94479640	     19.77022884	      1.57352301	     28.06700580	      2.35514983	     -6.22315653	    -24.69748833	     10.86030981	     -2.44660613	     -0.03067646	      1.65816277	      2.30170189
      4.31000000	     -8.45006300	      0.94436573	     -6.88853506	      1.36485808	      0.97460393	      0.24048046	     31.06630670	     -2.58408638	     -1.94291189	    -52.49361814	     20.17202767	      1.58112383	     27.88520967	      2.32747685	     -6.15985861	    -24.49342875	     10.94706299	     -2.53436483	     -0.06736714	      1.70417577	      2.05992768
      4.32000000	     -8.57610560	      0.86375023	     -6.80689003	      1.36795439	      0.97508634	      0.24056971	     31.35786646	     -2.57512328	     -2.35272684	    -50.99349851	     20.54292526	      1.52959072	     27.70936547	      2.28726821	     -6.08583770	    -24.30407947	     11.04462663	     -2.60487421	     -0.09088400	      1.75863756	      1.84668402
      4.33000000	     -8.69610718	      0.77464882	     -6.72186658	      1.37103298	      0.97557123	      0.24071586	     31.59050184	     -2.53758771	     -2.76084754	    -49.45987734	     20.88755280	      1.41422060	     27.53516462	      2.23503691	     -6.00766269	    -24.12891765	     11.15408819	     -2.65072842	     -0.10555373	      1.81808355	      1.66832127
      4.34000000	     -8.80573533	      0.67454900	     -6.63392520	      1.37410104	      0.97606324	      0.24095448	     31.76242404	     -2.45793882	     -3.15020376	    -47.90940085	     21.20060084	      1.25133597	     27.35558164	      2.16652794	     -5.92417023	    -23.96496620	     11.27722001	     -2.67203153	     -0.11572084	      1.87802966	      1.52048259
      4.35000000	     -8.90723628	      0.57376190	     -6.54962877	      1.37715783	      0.97654444	      0.24126393	     31.88350025	     -2.33701346	     -3.48368451	    -46.36057100	     21.50935987	      1.10199215	     27.17632526	      2.09015664	     -5.84876898	    -23.81694157	     11.40710330	     -2.66951982	     -0.11863753	      1.93771874	      1.41644032
      4.36000000	     -8.99497089	      0.46720905	     -6.46447486	      1.38020058	      0.97703318	      0.24168251	     31.94684028	     -2.16103229	     -3.73722263	    -44.82231981	     21.78080140	      0.99225223	     26.98192357	      2.00356805	     -5.75902142	    -23.66749621	     11.54568020	     -2.64597846	     -0.12129635	      1.99012588	      1.34046841
      4.37000000	     -9.08354703	      0.36001256	     -6.37733145	      1.38322961	      0.97747626	      0.24221059	     31.97577618	     -1.94303260	     -3.92038584	    -43.31841634	     22.07191172	      1.00084616	     26.80238019	      1.90107805	     -5.70564792	    -23.54258822	     11.69553530	     -2.61541819	     -0.10504821	      2.03208482	      1.30342657
      4.38000000	     -9.15930823	      0.24459115	     -6.29446228	      1.38625255	      0.97791273	      0.24282779	     31.95096885	     -1.67483802	     -4.01222940	    -41.84746013	     22.33334919	      1.13236088	     26.61074536	      1.78510940	     -5.64490661	    -23.42343080	     11.85961858	     -2.57221683	     -0.08810305	      2.08131127	      1.28816511
      4.39000000	     -9.22843601	      0.12936603	     -6.20966942	      1.38925792	      0.97832370	      0.24355154	     31.88489559	     -1.36969611	     -4.01086844	    -40.42709144	     22.56741225	      1.40808259	     26.41418342	      1.65943114	     -5.60200433	    -23.30556032	     12.03701185	     -2.52200301	     -0.06435736	      2.11932371	      1.30204920
      4.40000000	     -9.28564579	      0.02587354	     -6.13744138	      1.39227025	      0.97871061	      0.24435904	     31.78038152	     -1.04750430	     -3.91653088	    -39.07533636	     22.75721075	      1.84301986	     26.20319350	      1.53697300	     -5.56945564	    -23.18769517	     12.22248098	     -2.46489951	     -0.03383633	      2.14269916	      1.34147917
      4.41000000	     -9.31731314	     -0.02705718	     -6.05976048	      1.39527450	      0.97908777	      0.24522010	     31.63996520	     -0.75994288	     -3.71793452	    -37.82608627	     22.90079757	      2.53751938	     25.95255233	      1.47224642	     -5.51615048	    -23.03376475	     12.39423692	     -2.38602432	     -0.01355359	      2.09776551	      1.39173039
      4.42000000	     -9.38145172	     -0.09626045	     -5.99706982	      1.39829104	      0.97935571	      0.24616290	     31.50126603	     -0.43688600	     -3.47607721	    -36.64761165	     22.93067935	      3.02915296	     25.75039370	      1.36395925	     -5.53838371	    -22.91380557	     12.58729027	     -2.34627835	      0.06445613	      2.08020140	      1.48261793
      4.43000000	     -9.39478526	     -0.09648751	     -5.91253454	      1.40132362	      0.97964027	      0.24708105	     31.30857762	     -0.19851835	     -3.16682809	    -35.59742423	     22.89421706	      3.72763802	     25.47830686	      1.34843920	     -5.51230898	    -22.74914033	     12.75955079	     -2.27529469	      0.10495579	      1.97543918	      1.55571445
      4.44000000	     -9.44529225	     -0.09492806	     -5.84078278	      1.40437594	      0.97981834	      0.24803690	     31.13378548	      0.04034329	     -2.84697379	    -34.63650747	     22.61184927	      4.16007863	     25.24527052	      1.31705452	     -5.53723321	    -22.58677877	     12.92817968	     -2.23518826	      0.20975778	      1.88215652	      1.65989998
      4.45000000	     -9.44506893	     -0.04191299	     -5.74808708	      1.40744391	      0.98000530	      0.24893000	     30.89815190	      0.20153143	     -2.49160442	    -33.79311491	     22.23688727	      4.66077429	     24.94888358	      1.35991689	     -5.52456503	    -22.39713230	     13.10133878	     -2.16923922	      0.27116760	      1.73125498	      1.75074716
      4.46000000	     -9.47638844	      0.04086275	     -5.64953329	      1.41051526	      0.98008222	      0.24979661	     30.68975289	      0.31013203	     -2.17318790	    -33.05737648	     21.61919004	      4.91721726	     24.68432229	      1.43130015	     -5.52478084	    -22.19819197	     13.25855229	     -2.12247490	      0.38915261	      1.55846149	      1.83712338
